<?xml version="1.0" encoding="UTF-8"?><svg id="a" xmlns="http://www.w3.org/2000/svg" viewBox="0 0 616.4 151.85"><path d="M50.35,116.95c-7,0-12.43-1.35-16.27-4.05-3.85-2.7-6.83-6.25-8.93-10.65v12.75H5.5V5.5h20.25v43.5c2.1-4.1,5.05-7.4,8.85-9.9,3.8-2.5,9.05-3.75,15.75-3.75,5.4,0,10.42,1.08,15.07,3.23,4.65,2.15,8.72,5.1,12.23,8.85,3.5,3.75,6.25,8.1,8.25,13.05,2,4.95,3,10.23,3,15.82,0,7.5-1.73,14.33-5.17,20.48-3.45,6.15-8.08,11.05-13.88,14.7-5.8,3.65-12.3,5.47-19.5,5.47ZM47.05,98.65c4.3,0,8.07-1.05,11.33-3.15,3.99-2.58,6.89-6.18,8.7-10.8,1.02-2.6,1.54-5.39,1.57-8.18.05-4.24-.84-8.11-2.7-11.61-1.8-3.4-4.33-6.12-7.58-8.17-3.25-2.05-7.03-3.08-11.33-3.08s-8.25,1.05-11.55,3.15c-3.3,2.1-5.85,4.85-7.65,8.25-1.8,3.4-2.7,7.15-2.7,11.25s.9,7.7,2.7,11.1c1.8,3.4,4.35,6.13,7.65,8.17,3.3,2.05,7.15,3.08,11.55,3.08Z" fill="#312f2c" stroke="#312f2c" stroke-linecap="round" stroke-linejoin="round" stroke-width="11"/><path d="M144.7,116.95c-7.1,0-13.57-1.83-19.42-5.47-5.85-3.65-10.5-8.55-13.95-14.7-3.45-6.15-5.17-12.98-5.17-20.48,0-5.6,1-10.88,3-15.82,2-4.95,4.75-9.3,8.25-13.05,3.5-3.75,7.58-6.7,12.23-8.85,4.65-2.15,9.67-3.23,15.07-3.23,6.8,0,12.1,1.27,15.9,3.82,3.8,2.55,6.75,5.93,8.85,10.12v-12.3h20.1v78h-19.65v-12.75c-2.1,4.4-5.08,7.95-8.92,10.65-3.85,2.7-9.28,4.05-16.28,4.05ZM148,98.65c4.5,0,8.37-1.02,11.62-3.08,3.25-2.05,5.77-4.77,7.57-8.17,1.8-3.4,2.7-7.1,2.7-11.1s-.9-7.85-2.7-11.25c-1.8-3.4-4.33-6.15-7.57-8.25-3.25-2.1-7.12-3.15-11.62-3.15s-8.08,1.03-11.33,3.08c-3.25,2.05-5.77,4.78-7.57,8.17-1.85,3.5-2.75,7.38-2.7,11.62.04,2.8.56,5.58,1.58,8.19,1.8,4.62,4.7,8.22,8.69,10.79,3.25,2.1,7.02,3.15,11.33,3.15Z" fill="#312f2c" stroke="#312f2c" stroke-linecap="round" stroke-linejoin="round" stroke-width="11"/><path d="M258.4,116.95c-7,0-12.43-1.35-16.27-4.05-3.85-2.7-6.83-6.25-8.93-10.65v12.75h-19.65V5.5h20.25v43.5c2.1-4.1,5.05-7.4,8.85-9.9,3.8-2.5,9.05-3.75,15.75-3.75,5.4,0,10.42,1.08,15.07,3.23,4.65,2.15,8.72,5.1,12.23,8.85,3.5,3.75,6.25,8.1,8.25,13.05,2,4.95,3,10.23,3,15.82,0,7.5-1.73,14.33-5.17,20.48-3.45,6.15-8.08,11.05-13.88,14.7-5.8,3.65-12.3,5.47-19.5,5.47ZM255.1,98.65c4.3,0,8.07-1.05,11.33-3.15,3.99-2.58,6.89-6.18,8.7-10.8,1.02-2.6,1.54-5.39,1.57-8.18.05-4.24-.84-8.11-2.7-11.61-1.8-3.4-4.33-6.12-7.58-8.17-3.25-2.05-7.03-3.08-11.33-3.08s-8.25,1.05-11.55,3.15c-3.3,2.1-5.85,4.85-7.65,8.25-1.8,3.4-2.7,7.15-2.7,11.25s.9,7.7,2.7,11.1c1.8,3.4,4.35,6.13,7.65,8.17,3.3,2.05,7.15,3.08,11.55,3.08Z" fill="#312f2c" stroke="#312f2c" stroke-linecap="round" stroke-linejoin="round" stroke-width="11"/><path d="M321.25,146.35c-2,0-4.25-.1-6.75-.3-2.5-.2-4.75-.6-6.75-1.2l3-19.35c2.8.7,5.85,1.05,9.15,1.05,3.9,0,7.1-1.12,9.6-3.38,2.5-2.25,4.3-5.08,5.4-8.47l1.05-3.3-30.9-74.4h24.45l15.15,44.55c1.4,4,2.5,8.15,3.3,12.45.8-4.3,1.9-8.45,3.3-12.45l15.15-44.55h24l-34.5,82.95c-3.3,7.9-7.6,14.27-12.9,19.12-5.3,4.85-12.55,7.28-21.75,7.28Z" fill="#312f2c" stroke="#312f2c" stroke-linecap="round" stroke-linejoin="round" stroke-width="11"/><path d="M413.65,115v-60.75h-10.95v-17.25h10.95v-5.25c0-7.9,2.35-14.25,7.05-19.05,4.7-4.8,11-7.2,18.9-7.2h8.4v17.25h-5.25c-5.9,0-8.85,3.1-8.85,9.3v4.95h15.9v17.25h-15.9v60.75h-20.25Z" fill="#312f2c" stroke="#312f2c" stroke-linecap="round" stroke-linejoin="round" stroke-width="11"/><path d="M499.6,116.95c-7.1,0-13.58-1.83-19.42-5.47-5.85-3.65-10.5-8.55-13.95-14.7-3.45-6.15-5.17-12.98-5.17-20.48,0-5.6,1-10.88,3-15.82,2-4.95,4.75-9.3,8.25-13.05,3.5-3.75,7.58-6.7,12.22-8.85,4.65-2.15,9.68-3.23,15.08-3.23,6.8,0,12.1,1.27,15.9,3.82,3.8,2.55,6.75,5.93,8.85,10.12v-12.3h20.1v78h-19.65v-12.75c-2.1,4.4-5.08,7.95-8.92,10.65-3.85,2.7-9.28,4.05-16.28,4.05ZM502.9,98.65c4.5,0,8.38-1.02,11.62-3.08,3.25-2.05,5.78-4.77,7.58-8.17,1.8-3.4,2.7-7.1,2.7-11.1s-.9-7.85-2.7-11.25c-1.8-3.4-4.33-6.15-7.58-8.25-3.25-2.1-7.12-3.15-11.62-3.15s-8.08,1.03-11.32,3.08c-3.25,2.05-5.78,4.78-7.58,8.17-1.85,3.5-2.75,7.38-2.7,11.62.04,2.8.56,5.58,1.58,8.19,1.8,4.62,4.7,8.21,8.69,10.79,3.25,2.1,7.02,3.15,11.32,3.15Z" fill="#312f2c" stroke="#312f2c" stroke-linecap="round" stroke-linejoin="round" stroke-width="11"/><path d="M598,115c-7.7,0-13.6-1.9-17.7-5.7-4.1-3.8-6.15-9.95-6.15-18.45v-36.6h-10.95v-17.25h10.95v-15.75l20.25-2.1v17.85h16.5v17.25h-16.5v35.55c0,4.8,2.1,7.2,6.3,7.2h8.4v18h-11.1Z" fill="#312f2c" stroke="#312f2c" stroke-linecap="round" stroke-linejoin="round" stroke-width="11"/></svg>